# xmcd
#
# Track frame offsets: 
#        182
#        17655
#        46115
#
# Disc length: 955 seconds
#
# Revision: 2
# Processed by: cddbd v1.5.1PL2 Copyright (c) Steve Scherf et al.
# Submitted via: ExactAudioCopy v0.95a5
#
DISCID=1703b903
DTITLE=Fix and Fertig - Der blonde Hans von der Bundesbahn
DYEAR=1988
DGENRE=Pop
TTITLE0=Der blonde Hans von der Bundesbahn (Single Version)
TTITLE1=Der blonde Hans von der Bundesbahn (Maxi Version)
TTITLE2=Der Page (Maxi Version)
EXTD=
EXTT0=
EXTT1=
EXTT2=
PLAYORDER=
